<svg width="495" height="302" viewBox="0 0 495 302" fill="none" xmlns="http://www.w3.org/2000/svg">
<g opacity="0.5" filter="url(#filter0_f_18_40)">
<path d="M422.913 263.969C422.913 279.752 373.168 292.546 311.804 292.546C250.439 292.546 200.694 279.752 200.694 263.969C200.694 248.187 250.439 235.393 311.804 235.393C373.168 235.393 422.913 248.187 422.913 263.969Z" fill="#DB14F1"/>
</g>
<g filter="url(#filter1_d_18_40)">
<rect x="224.299" y="9.45386" width="198.92" height="214.469" rx="20" transform="rotate(13 224.299 9.45386)" fill="white"/>
<rect x="224.674" y="10.0535" width="197.92" height="213.469" rx="19.5" transform="rotate(13 224.674 10.0535)" stroke="#F2F2F2"/>
</g>
<rect x="220.832" y="82.0264" width="40.9372" height="5.98681" rx="2.9934" transform="rotate(13 220.832 82.0264)" fill="#F2F2F2"/>
<rect x="217.886" y="94.7129" width="75.8325" height="3.87382" rx="1.93691" transform="rotate(13 217.886 94.7129)" fill="#F2F2F2"/>
<rect x="214.565" y="110.577" width="62.2256" height="3.87382" rx="1.93691" transform="rotate(13 214.565 110.577)" fill="#F2F2F2"/>
<rect x="216.226" y="102.645" width="75.8325" height="3.87382" rx="1.93691" transform="rotate(13 216.226 102.645)" fill="#F2F2F2"/>
<rect x="225.227" y="45.9668" width="84.4566" height="80.35" rx="19.5" transform="rotate(13 225.227 45.9668)" stroke="#D6D6D6"/>
<rect x="206.988" y="170.628" width="35.9062" height="5.98681" rx="2.9934" transform="rotate(13 206.988 170.628)" fill="#F2F2F2"/>
<rect x="204.056" y="183.329" width="66.0673" height="3.87382" rx="1.93691" transform="rotate(13 204.056 183.329)" fill="#F2F2F2"/>
<rect x="200.762" y="199.19" width="54.2183" height="3.87382" rx="1.93691" transform="rotate(13 200.762 199.19)" fill="#F2F2F2"/>
<rect x="202.234" y="191.216" width="50.6276" height="3.87382" rx="1.93691" transform="rotate(13 202.234 191.216)" fill="#F2F2F2"/>
<rect x="207.205" y="133.605" width="84.4566" height="80.35" rx="19.5" transform="rotate(13 207.205 133.605)" stroke="#D6D6D6"/>
<rect x="312.845" y="103.263" width="40.9372" height="5.98681" rx="2.9934" transform="rotate(13 312.845 103.263)" fill="#F2F2F2"/>
<rect x="309.814" y="116.302" width="55.6545" height="3.16949" rx="1.58474" transform="rotate(13 309.814 116.302)" fill="#F2F2F2"/>
<rect x="306.578" y="131.814" width="62.2256" height="3.87382" rx="1.93691" transform="rotate(13 306.578 131.814)" fill="#F2F2F2"/>
<rect x="308.239" y="123.892" width="75.8325" height="3.87382" rx="1.93691" transform="rotate(13 308.239 123.892)" fill="#F2F2F2"/>
<rect x="317.24" y="67.2039" width="84.4566" height="80.35" rx="19.5" transform="rotate(13 317.24 67.2039)" stroke="#D6D6D6"/>
<rect x="294.822" y="190.912" width="40.9372" height="5.98681" rx="2.9934" transform="rotate(13 294.822 190.912)" fill="#F2F2F2"/>
<rect x="291.876" y="203.598" width="75.8325" height="3.87382" rx="1.93691" transform="rotate(13 291.876 203.598)" fill="#F2F2F2"/>
<rect x="288.556" y="219.463" width="62.2256" height="3.87382" rx="1.93691" transform="rotate(13 288.556 219.463)" fill="#F2F2F2"/>
<rect x="290.216" y="211.531" width="75.8325" height="3.87382" rx="1.93691" transform="rotate(13 290.216 211.531)" fill="#F2F2F2"/>
<rect x="299.217" y="154.849" width="84.4566" height="80.35" rx="19.5" transform="rotate(13 299.217 154.849)" stroke="#D6D6D6"/>
<ellipse cx="239.051" cy="69.9365" rx="10.5923" ry="10.3889" transform="rotate(13 239.051 69.9365)" fill="#FFE2E9"/>
<ellipse cx="330.486" cy="88.0002" rx="10.5923" ry="10.3889" transform="rotate(13 330.486 88.0002)" fill="#D1D3FF"/>
<ellipse cx="219.177" cy="154.679" rx="10.5923" ry="10.3889" transform="rotate(13 219.177 154.679)" fill="#D5F7FF"/>
<ellipse cx="311.731" cy="175.837" rx="10.5923" ry="10.3889" transform="rotate(13 311.731 175.837)" fill="#FFE8E8"/>
<path d="M249.62 70.5308C249.513 72.6901 248.723 74.7571 247.36 76.4439C245.997 78.1308 244.129 79.3536 242.017 79.9421C239.904 80.5306 237.652 80.4556 235.573 79.7274C233.494 78.9992 231.693 77.6541 230.42 75.8794C229.146 74.1047 228.464 71.9887 228.469 69.826C228.473 67.6632 229.164 65.5614 230.444 63.8131C231.725 62.0647 233.531 60.7569 235.613 60.0717C237.694 59.3864 239.947 59.3579 242.057 59.99L241.804 60.828C239.872 60.2492 237.809 60.2753 235.903 60.9028C233.996 61.5303 232.342 62.7279 231.169 64.3289C229.997 65.93 229.364 67.8547 229.36 69.8352C229.356 71.8157 229.981 73.7534 231.147 75.3786C232.313 77.0037 233.962 78.2354 235.866 78.9022C237.769 79.5691 239.832 79.6378 241.767 79.0989C243.701 78.5599 245.412 77.4402 246.66 75.8955C247.908 74.3508 248.631 72.458 248.73 70.4806L249.62 70.5308Z" fill="#48BE2B"/>
<path d="M341.055 87.5679C341.165 89.7289 340.587 91.8641 339.401 93.6762C338.215 95.4883 336.481 96.8871 334.439 97.678C332.397 98.4689 330.15 98.6124 328.011 98.0886C325.871 97.5648 323.945 96.3997 322.5 94.7555C321.056 93.1114 320.166 91.07 319.953 88.9156C319.741 86.7611 320.216 84.6008 321.314 82.7355C322.412 80.8701 324.077 79.3925 326.078 78.5083C328.079 77.6241 330.316 77.3774 332.477 77.8025L332.31 78.6617C330.33 78.2724 328.282 78.4984 326.449 79.308C324.617 80.1177 323.092 81.4708 322.087 83.179C321.082 84.8872 320.646 86.8654 320.841 88.8383C321.036 90.8112 321.851 92.6806 323.173 94.1862C324.496 95.6918 326.26 96.7587 328.219 97.2384C330.179 97.7181 332.236 97.5866 334.106 96.8624C335.975 96.1382 337.564 94.8572 338.65 93.1978C339.735 91.5384 340.265 89.5831 340.164 87.6042L341.055 87.5679Z" fill="#48BE2B"/>
<path d="M222.255 164.705C220.718 165.147 219.097 165.24 217.512 164.975C215.928 164.71 214.423 164.095 213.111 163.176C211.798 162.257 210.713 161.059 209.938 159.672C209.162 158.285 208.716 156.745 208.633 155.17C208.551 153.594 208.834 152.024 209.461 150.577C210.089 149.131 211.043 147.847 212.254 146.821C213.464 145.796 214.899 145.057 216.448 144.659C217.998 144.262 219.622 144.217 221.198 144.528L221.03 145.387C219.587 145.102 218.099 145.144 216.68 145.507C215.261 145.871 213.948 146.548 212.839 147.487C211.731 148.426 210.856 149.602 210.282 150.927C209.708 152.251 209.448 153.689 209.524 155.132C209.6 156.575 210.008 157.985 210.718 159.255C211.429 160.525 212.422 161.622 213.624 162.464C214.826 163.305 216.204 163.868 217.655 164.111C219.105 164.353 220.591 164.269 221.998 163.864L222.255 164.705Z" fill="#48BE2B"/>
<path d="M320.393 181.954C319.294 183.471 317.797 184.665 316.058 185.411C314.32 186.157 312.405 186.426 310.516 186.191C308.626 185.957 306.832 185.226 305.321 184.076C303.811 182.927 302.64 181.401 301.932 179.659C301.225 177.918 301.007 176.025 301.301 174.18C301.595 172.335 302.39 170.607 303.603 169.176C304.816 167.746 306.402 166.667 308.194 166.053C309.986 165.438 311.917 165.311 313.784 165.685L313.613 166.544C311.903 166.202 310.135 166.318 308.494 166.88C306.853 167.443 305.401 168.431 304.29 169.741C303.179 171.051 302.451 172.633 302.182 174.323C301.912 176.012 302.112 177.746 302.76 179.34C303.408 180.935 304.48 182.332 305.863 183.385C307.247 184.438 308.89 185.107 310.62 185.322C312.35 185.537 314.104 185.29 315.696 184.607C317.288 183.925 318.659 182.831 319.665 181.442L320.393 181.954Z" fill="#48BE2B"/>
<ellipse cx="339.09" cy="81.8565" rx="4.30873" ry="4.22598" transform="rotate(13 339.09 81.8565)" fill="white"/>
<ellipse cx="247.226" cy="64.0525" rx="4.30873" ry="4.22598" transform="rotate(13 247.226 64.0525)" fill="white"/>
<ellipse cx="321.576" cy="170.7" rx="4.30873" ry="4.22598" transform="rotate(13 321.576 170.7)" fill="white"/>
<ellipse cx="228.053" cy="148.957" rx="4.30873" ry="4.22598" transform="rotate(13 228.053 148.957)" fill="white"/>
<path d="M248.654 62.2544C248.92 62.3166 249.151 62.4754 249.298 62.6963C249.445 62.9171 249.496 63.1821 249.438 63.4333L249.001 65.3276C248.942 65.5784 248.781 65.7945 248.552 65.9286C248.323 66.0627 248.045 66.1039 247.779 66.0433L245.774 65.5803C245.508 65.5182 245.276 65.3593 245.13 65.1385C244.983 64.9176 244.932 64.6526 244.989 64.4015L245.427 62.5071C245.485 62.2563 245.647 62.0402 245.876 61.9061C246.105 61.772 246.382 61.7308 246.648 61.7914L248.654 62.2544ZM248.742 61.8756L246.736 61.4125C245.964 61.2342 245.194 61.6851 245.026 62.4145L244.588 64.3088C244.42 65.0382 244.914 65.7808 245.686 65.9591L247.692 66.4222C248.464 66.6005 249.234 66.1496 249.402 65.4202L249.839 63.5259C250.008 62.7965 249.514 62.0539 248.742 61.8756Z" fill="#FA6488"/>
<path d="M248.737 63.2692C248.677 63.2555 248.623 63.2254 248.581 63.1828C248.538 63.1401 248.51 63.0868 248.499 63.0296C248.489 62.9725 248.496 62.9139 248.52 62.8615C248.544 62.8091 248.585 62.765 248.636 62.735C248.687 62.705 248.747 62.6903 248.808 62.6928C248.869 62.6953 248.928 62.7149 248.978 62.7491C249.028 62.7833 249.067 62.8306 249.089 62.885C249.111 62.9393 249.116 62.9983 249.103 63.0545C249.095 63.0919 249.078 63.1271 249.055 63.1581C249.032 63.1892 249.003 63.2154 248.969 63.2353C248.935 63.2553 248.897 63.2686 248.857 63.2744C248.817 63.2802 248.776 63.2784 248.737 63.2692ZM247.389 63.1576C247.548 63.1943 247.693 63.2745 247.806 63.3882C247.918 63.502 247.994 63.6441 248.023 63.7966C248.051 63.949 248.032 64.1051 247.967 64.2449C247.902 64.3848 247.795 64.5022 247.658 64.5822C247.521 64.6623 247.362 64.7015 247.199 64.6948C247.037 64.6881 246.879 64.6358 246.746 64.5446C246.612 64.4534 246.509 64.3274 246.45 64.1824C246.391 64.0374 246.377 63.8801 246.412 63.7302C246.459 63.5293 246.588 63.3562 246.771 63.2489C246.954 63.1415 247.177 63.1087 247.389 63.1576ZM247.477 62.7788C247.239 62.7238 246.991 62.7368 246.764 62.816C246.537 62.8952 246.342 63.0371 246.203 63.2237C246.064 63.4104 245.987 63.6334 245.983 63.8647C245.978 64.0959 246.046 64.3249 246.178 64.5227C246.309 64.7205 246.499 64.8783 246.722 64.976C246.946 65.0738 247.193 65.1071 247.432 65.0719C247.672 65.0366 247.894 64.9343 248.069 64.7779C248.245 64.6215 248.366 64.4181 248.418 64.1933C248.487 63.8918 248.427 63.5734 248.251 63.3081C248.074 63.0429 247.796 62.8525 247.477 62.7788Z" fill="#FA6488"/>
<path d="M231.196 148.107C230.985 148.145 230.768 148.152 230.554 148.128C230.802 148.053 231.013 147.891 231.148 147.673C230.913 147.744 230.667 147.775 230.421 147.765C230.345 147.64 230.245 147.531 230.125 147.445C230.005 147.359 229.87 147.298 229.726 147.265C229.143 147.13 228.566 147.477 228.437 148.039C228.418 148.117 228.409 148.197 228.41 148.277C227.997 148.161 227.612 147.962 227.28 147.693C226.948 147.423 226.677 147.089 226.483 146.712C226.353 146.845 226.263 147.01 226.221 147.19C226.14 147.543 226.255 147.898 226.497 148.146C226.33 148.103 226.175 148.022 226.047 147.908L226.044 147.921C225.93 148.414 226.199 148.909 226.659 149.114C226.563 149.116 226.467 149.107 226.373 149.085C226.307 149.07 226.242 149.048 226.179 149.021C226.22 149.456 226.542 149.84 227.002 149.955C226.561 150.152 226.065 150.199 225.592 150.088C225.508 150.069 225.425 150.044 225.343 150.015C225.756 150.428 226.279 150.717 226.851 150.848C228.793 151.296 230.211 149.99 230.522 148.645C230.532 148.601 230.541 148.557 230.549 148.513C230.788 148.417 231.007 148.28 231.196 148.107Z" fill="#4CCEEB"/>
<path d="M322.132 168.299C320.779 167.987 319.434 168.809 319.128 170.135C318.901 171.118 319.309 172.102 320.086 172.673C320.118 172.505 320.17 172.304 320.256 172.132C320.348 171.948 320.873 170.896 320.873 170.896C320.873 170.896 320.83 170.724 320.882 170.498C320.964 170.142 321.236 169.925 321.498 169.985C321.721 170.037 321.79 170.226 321.745 170.422C321.694 170.642 321.475 170.937 321.332 171.224C321.212 171.465 321.355 171.716 321.612 171.776C322.076 171.883 322.524 171.371 322.683 170.678C322.805 170.152 322.534 169.675 321.877 169.523C321.134 169.351 320.545 169.788 320.405 170.395C320.357 170.604 320.386 170.766 320.458 170.903C320.491 170.966 320.492 170.989 320.462 171.045C320.44 171.086 320.389 171.186 320.367 171.226C320.337 171.283 320.281 171.293 320.231 171.258C319.92 171.042 319.845 170.638 319.941 170.224C320.098 169.543 320.874 168.86 322.038 169.129C322.973 169.345 323.435 170.15 323.271 170.862C323.053 171.805 322.356 172.384 321.569 172.203C321.304 172.141 321.088 171.944 321.04 171.765C321.04 171.765 320.77 172.286 320.715 172.386C320.62 172.559 320.476 172.72 320.35 172.844C320.56 172.961 320.786 173.048 321.021 173.103C322.374 173.415 323.719 172.593 324.025 171.267C324.331 169.941 323.484 168.611 322.132 168.299Z" fill="#FF6969"/>
<path fill-rule="evenodd" clip-rule="evenodd" d="M342.03 82.4926C342.375 80.9986 341.372 79.4911 339.79 79.1259C338.208 78.7607 336.646 79.676 336.301 81.17C335.989 82.5203 336.778 83.8813 338.101 84.4006L338.537 82.5103L337.809 82.3423L337.99 81.56L338.718 81.728L338.855 81.1319C339.012 80.454 339.526 80.178 340.18 80.3291C340.494 80.4014 340.809 80.53 340.809 80.53L340.656 81.1959L340.294 81.1124C339.939 81.0303 339.779 81.2131 339.73 81.4274L339.613 81.9346L340.407 82.118L340.1 82.871L339.432 82.7169L338.996 84.6075C340.412 84.7207 341.718 83.8433 342.03 82.4926Z" fill="#5B62FF"/>
<rect x="354.915" y="48.6445" width="49.5505" height="18.3126" rx="9.15629" transform="rotate(13 354.915 48.6445)" fill="#F6F6F6"/>
<path d="M365.492 64.7179C365.128 64.6339 364.815 64.496 364.553 64.3041C364.292 64.107 364.105 63.8723 363.993 63.6001C363.88 63.3278 363.86 63.0358 363.932 62.724L364.883 62.9436C364.85 63.1822 364.897 63.3955 365.023 63.5834C365.154 63.7725 365.368 63.9012 365.664 63.9696C365.971 64.0404 366.227 64.0228 366.432 63.9169C366.638 63.8058 366.768 63.6333 366.822 63.3994C366.864 63.2176 366.844 63.0569 366.761 62.9173C366.684 62.779 366.572 62.6601 366.425 62.5605C366.283 62.4622 366.081 62.3442 365.817 62.2067C365.485 62.0316 365.218 61.8715 365.016 61.7263C364.821 61.5772 364.669 61.3833 364.56 61.1446C364.45 60.906 364.435 60.6178 364.513 60.28C364.585 59.9682 364.726 59.7134 364.936 59.5155C365.146 59.3176 365.405 59.1887 365.715 59.1288C366.024 59.0689 366.363 59.0815 366.732 59.1667C367.257 59.2879 367.655 59.5194 367.927 59.8612C368.204 60.199 368.309 60.6007 368.24 61.0664L367.257 60.8397C367.287 60.6386 367.233 60.4481 367.094 60.2682C366.955 60.0883 366.745 59.966 366.464 59.9012C366.21 59.8424 365.987 59.8594 365.796 59.9521C365.604 60.0448 365.481 60.2133 365.424 60.4576C365.386 60.6238 365.404 60.773 365.477 60.9049C365.557 61.0328 365.668 61.1459 365.809 61.2443C365.951 61.3427 366.148 61.4594 366.402 61.5945C366.737 61.7761 367.006 61.942 367.206 62.0923C367.412 62.2438 367.569 62.4415 367.677 62.6854C367.791 62.9252 367.809 63.2167 367.73 63.5596C367.666 63.8351 367.531 64.0775 367.324 64.2869C367.122 64.4976 366.86 64.6453 366.54 64.73C366.226 64.8107 365.876 64.8067 365.492 64.7179ZM371.653 61.485C371.98 61.5606 372.255 61.698 372.477 61.897C372.705 62.0973 372.86 62.352 372.941 62.661C373.029 62.9712 373.027 63.3212 372.937 63.711L372.352 66.2443L371.471 66.041L372.026 63.6401C372.115 63.2556 372.086 62.9398 371.941 62.6927C371.796 62.4404 371.558 62.2759 371.225 62.1991C370.893 62.1224 370.604 62.1651 370.358 62.3274C370.119 62.4857 369.955 62.7571 369.867 63.1416L369.312 65.5425L368.424 65.3373L369.755 59.569L370.644 59.7742L370.189 61.7463C370.381 61.5992 370.603 61.5027 370.855 61.4568C371.112 61.412 371.378 61.4214 371.653 61.485ZM377.942 65.1621C377.905 65.3232 377.861 65.4663 377.81 65.5914L374.529 64.8338C374.475 65.1827 374.539 65.4875 374.72 65.7482C374.901 66.0089 375.157 66.1776 375.49 66.2544C375.968 66.3647 376.352 66.2426 376.642 65.8881L377.6 66.1094C377.379 66.4744 377.068 66.7446 376.666 66.92C376.271 67.0915 375.821 67.119 375.317 67.0027C374.906 66.9079 374.558 66.7318 374.273 66.4743C373.994 66.2128 373.799 65.8942 373.689 65.5184C373.585 65.1387 373.584 64.7279 373.686 64.2862C373.788 63.8445 373.966 63.4777 374.219 63.186C374.479 62.8902 374.791 62.6885 375.156 62.581C375.525 62.4747 375.92 62.4702 376.341 62.5673C376.746 62.6609 377.087 62.8326 377.363 63.0825C377.639 63.3324 377.829 63.6388 377.931 64.0018C378.035 64.3596 378.038 64.7463 377.942 65.1621ZM377.08 64.6673C377.15 64.3387 377.094 64.0493 376.91 63.799C376.727 63.5488 376.467 63.3846 376.129 63.3067C375.823 63.2359 375.537 63.274 375.274 63.4211C375.011 63.563 374.82 63.7954 374.702 64.1184L377.08 64.6673ZM378.501 65.3813C378.6 64.95 378.777 64.5884 379.03 64.2966C379.289 64.0061 379.593 63.8052 379.941 63.6941C380.296 63.579 380.663 63.5653 381.043 63.6528C381.323 63.7176 381.584 63.8436 381.826 64.0307C382.074 64.2138 382.255 64.4253 382.369 64.6651L382.848 62.5917L383.744 62.7986L382.412 68.5669L381.516 68.3599L381.665 67.713C381.472 67.8872 381.23 68.0119 380.939 68.0871C380.653 68.1634 380.344 68.1632 380.011 68.0864C379.637 68 379.315 67.8273 379.047 67.5682C378.785 67.3051 378.602 66.9837 378.498 66.604C378.4 66.2202 378.401 65.8126 378.501 65.3813ZM382.013 66.2085C382.081 65.9123 382.078 65.6407 382.004 65.3936C381.935 65.1478 381.815 64.9449 381.644 64.785C381.472 64.6251 381.273 64.5187 381.044 64.4659C380.815 64.4131 380.589 64.4211 380.365 64.4899C380.142 64.5534 379.944 64.6799 379.768 64.8694C379.6 65.0548 379.481 65.2957 379.413 65.5919C379.344 65.8881 379.344 66.1617 379.412 66.4128C379.485 66.665 379.607 66.8737 379.777 67.0388C379.953 67.1999 380.153 67.3063 380.376 67.3579C380.605 67.4106 380.831 67.4027 381.055 67.3339C381.279 67.2652 381.476 67.1355 381.646 66.9448C381.822 66.7502 381.944 66.5047 382.013 66.2085ZM388.461 65.4393L387.469 69.7344L386.581 69.5292L386.698 69.0225C386.517 69.1668 386.3 69.2645 386.047 69.3157C385.801 69.3628 385.55 69.357 385.296 69.2982C384.958 69.2203 384.67 69.0799 384.432 68.8772C384.2 68.6757 384.037 68.4193 383.945 68.1078C383.858 67.7976 383.859 67.4477 383.949 67.0579L384.532 64.5323L385.413 64.7357L384.861 67.1287C384.772 67.5133 384.8 67.8317 384.944 68.084C385.089 68.331 385.328 68.4929 385.661 68.5697C385.994 68.6465 386.279 68.6058 386.518 68.4475C386.764 68.2852 386.931 68.0118 387.02 67.6272L387.572 65.2342L388.461 65.4393ZM390.862 64.4419L389.53 70.2102L388.642 70.0051L389.974 64.2368L390.862 64.4419ZM395.154 69.1356C395.116 69.2967 395.072 69.4398 395.022 69.5649L391.74 68.8073C391.687 69.1563 391.751 69.4611 391.931 69.7217C392.112 69.9824 392.368 70.1511 392.701 70.2279C393.179 70.3383 393.563 70.2162 393.853 69.8616L394.812 70.083C394.591 70.4479 394.279 70.7181 393.877 70.8936C393.482 71.0651 393.032 71.0926 392.528 70.9762C392.118 70.8814 391.77 70.7053 391.484 70.4479C391.205 70.1864 391.011 69.8678 390.9 69.492C390.797 69.1122 390.796 68.7015 390.898 68.2598C391 67.818 391.177 67.4513 391.431 67.1595C391.691 66.8637 392.003 66.6621 392.367 66.5546C392.736 66.4483 393.131 66.4437 393.552 66.5409C393.958 66.6345 394.298 66.8062 394.575 67.0561C394.851 67.3059 395.04 67.6124 395.142 67.9753C395.246 68.3331 395.25 68.7199 395.154 69.1356ZM394.291 68.6408C394.361 68.3123 394.305 68.0228 394.122 67.7726C393.939 67.5223 393.678 67.3582 393.341 67.2802C393.034 67.2094 392.749 67.2476 392.485 67.3947C392.222 67.5365 392.032 67.769 391.913 68.092L394.291 68.6408Z" fill="#AAAAAA"/>
<path d="M243.028 33.2991L240.202 45.541L237.747 44.9742L239.585 37.0116L234.467 44.217L232.608 43.7878L231.149 35.064L229.311 43.0265L226.855 42.4597L229.681 30.2177L232.47 30.8615L234.262 40.863L240.257 32.6593L243.028 33.2991ZM243.128 41.0624C243.355 40.0803 243.749 39.2537 244.31 38.5828C244.883 37.9146 245.55 37.4528 246.311 37.1974C247.084 36.9447 247.885 36.9142 248.715 37.1059C249.44 37.2733 250.038 37.5652 250.508 37.9817C250.99 38.4008 251.344 38.8704 251.568 39.3903L251.888 38.0047L254.361 38.5757L252.118 48.2921L249.645 47.7211L249.973 46.3005C249.552 46.6836 249.026 46.9624 248.394 47.1368C247.777 47.3023 247.106 47.3013 246.382 47.134C245.563 46.945 244.863 46.5618 244.282 45.9843C243.713 45.4095 243.317 44.6962 243.095 43.8444C242.888 42.9836 242.899 42.0563 243.128 41.0624ZM250.767 42.8629C250.904 42.2666 250.905 41.731 250.768 41.2561C250.634 40.7695 250.394 40.3692 250.048 40.0553C249.704 39.7296 249.305 39.5142 248.849 39.4089C248.393 39.3036 247.946 39.3175 247.509 39.4506C247.072 39.5837 246.68 39.8382 246.335 40.2141C246.004 40.5811 245.771 41.0568 245.636 41.6415C245.501 42.2261 245.499 42.7675 245.63 43.2658C245.776 43.7552 246.015 44.1613 246.347 44.4842C246.69 44.8098 247.084 45.0239 247.529 45.1265C247.985 45.2318 248.437 45.2192 248.886 45.0889C249.337 44.9468 249.729 44.6923 250.06 44.3254C250.393 43.9467 250.629 43.4592 250.767 42.8629ZM258.867 41.2045C259.301 40.7629 259.803 40.454 260.374 40.2778C260.956 40.1042 261.574 40.0931 262.229 40.2442L261.634 42.8224L260.985 42.6726C260.213 42.4944 259.586 42.5407 259.105 42.8114C258.636 43.0848 258.297 43.6716 258.089 44.5719L256.972 49.4126L254.516 48.8457L256.759 39.1293L259.215 39.6962L258.867 41.2045ZM262.097 45.4788C262.329 44.4732 262.736 43.6435 263.318 42.9897C263.903 42.3242 264.605 41.8705 265.425 41.6286C266.247 41.375 267.125 41.3562 268.061 41.5722C269.265 41.8502 270.189 42.3837 270.832 43.1726C271.489 43.9524 271.827 44.9171 271.845 46.0666L269.197 45.4552C269.153 45.0019 268.989 44.6191 268.704 44.307C268.433 43.9859 268.053 43.7686 267.561 43.6552C266.86 43.4933 266.245 43.6223 265.717 44.0423C265.192 44.4506 264.821 45.1224 264.605 46.0578C264.392 46.9815 264.431 47.7478 264.721 48.3568C265.014 48.954 265.512 49.3337 266.213 49.4956C267.207 49.7251 267.959 49.4306 268.468 48.6121L271.116 49.2236C270.604 50.2138 269.879 50.927 268.941 51.3631C268.003 51.7992 266.937 51.8796 265.745 51.6043C264.809 51.3884 264.026 50.9921 263.396 50.4155C262.768 49.8272 262.336 49.1116 262.1 48.2688C261.866 47.4144 261.865 46.4843 262.097 45.4788ZM279.905 44.3252C280.642 44.4952 281.259 44.8101 281.756 45.2697C282.256 45.7177 282.591 46.2938 282.761 46.9981C282.946 47.6934 282.936 48.4795 282.734 49.3564L281.418 55.0565L278.963 54.4896L280.202 49.1228C280.38 48.3511 280.323 47.7161 280.032 47.2178C279.743 46.7078 279.266 46.3758 278.599 46.222C277.921 46.0654 277.335 46.1517 276.84 46.4808C276.359 46.801 276.03 47.3469 275.852 48.1186L274.613 53.4854L272.158 52.9186L275.154 39.94L277.609 40.5068L276.577 44.9792C276.99 44.6311 277.486 44.4009 278.066 44.2886C278.649 44.1645 279.262 44.1767 279.905 44.3252ZM289.063 53.9027C290.401 53.2264 291.475 52.6554 292.285 52.1895C293.097 51.712 293.804 51.1855 294.405 50.6099C295.005 50.0343 295.382 49.4191 295.533 48.7643C295.67 48.168 295.638 47.6679 295.436 47.2641C295.233 46.8602 294.84 46.5908 294.255 46.4558C293.671 46.3208 293.175 46.4157 292.767 46.7403C292.362 47.0533 292.076 47.5475 291.908 48.223L289.522 47.6723C289.893 46.28 290.554 45.3118 291.504 44.7678C292.467 44.2264 293.556 44.0961 294.772 44.3768C296.105 44.6845 297.046 45.2774 297.594 46.1553C298.146 47.0215 298.288 48.0334 298.02 49.1909C297.81 50.1029 297.363 50.9173 296.681 51.6341C295.998 52.3509 295.269 52.9463 294.495 53.4202C293.723 53.8824 292.729 54.4287 291.512 55.0591L296.686 56.2536L296.216 58.2881L287.552 56.2878L287.973 54.4638L289.063 53.9027ZM308.778 50.1413L303.096 48.8293L302.403 51.8285C302.719 51.5811 303.127 51.4166 303.626 51.3348C304.128 51.2413 304.636 51.2539 305.15 51.3727C306.086 51.5887 306.804 51.9701 307.306 52.517C307.808 53.0639 308.119 53.6899 308.24 54.3951C308.363 55.0886 308.341 55.7978 308.173 56.5227C307.863 57.8673 307.227 58.8598 306.267 59.5001C305.318 60.1431 304.136 60.3013 302.721 59.9747C301.388 59.667 300.401 59.0881 299.76 58.2381C299.119 57.388 298.87 56.413 299.013 55.313L301.398 55.8637C301.395 56.3557 301.543 56.7838 301.84 57.1481C302.15 57.5151 302.591 57.7648 303.164 57.897C303.854 58.0563 304.424 57.9601 304.875 57.6085C305.325 57.2568 305.633 56.7244 305.798 56.0112C305.965 55.2862 305.911 54.6948 305.634 54.237C305.373 53.7702 304.897 53.4571 304.207 53.2979C303.716 53.1845 303.278 53.2128 302.894 53.3827C302.51 53.5527 302.201 53.8261 301.966 54.2029L299.616 53.6603L301.349 46.1538L309.276 47.984L308.778 50.1413Z" fill="#2F2F2F"/>
<defs>
<filter id="filter0_f_18_40" x="0.693878" y="35.3926" width="622.219" height="457.154" filterUnits="userSpaceOnUse" color-interpolation-filters="sRGB">
<feFlood flood-opacity="0" result="BackgroundImageFix"/>
<feBlend mode="normal" in="SourceGraphic" in2="BackgroundImageFix" result="shape"/>
<feGaussianBlur stdDeviation="100" result="effect1_foregroundBlur_18_40"/>
</filter>
<filter id="filter1_d_18_40" x="130.036" y="-4.56421" width="334.103" height="345.755" filterUnits="userSpaceOnUse" color-interpolation-filters="sRGB">
<feFlood flood-opacity="0" result="BackgroundImageFix"/>
<feColorMatrix in="SourceAlpha" type="matrix" values="0 0 0 0 0 0 0 0 0 0 0 0 0 0 0 0 0 0 127 0" result="hardAlpha"/>
<feOffset dy="32"/>
<feGaussianBlur stdDeviation="25"/>
<feComposite in2="hardAlpha" operator="out"/>
<feColorMatrix type="matrix" values="0 0 0 0 0.7625 0 0 0 0 0.7625 0 0 0 0 0.7625 0 0 0 0.25 0"/>
<feBlend mode="normal" in2="BackgroundImageFix" result="effect1_dropShadow_18_40"/>
<feBlend mode="normal" in="SourceGraphic" in2="effect1_dropShadow_18_40" result="shape"/>
</filter>
</defs>
</svg>
