<svg width="794" height="773" viewBox="0 0 794 773" fill="none" xmlns="http://www.w3.org/2000/svg">
<path d="M1.72358 752.417C-6.58986 745.045 30.3482 745.591 48.5795 745.25C51.2047 748.936 53.1372 749.004 57.8774 749.857C60.0651 755.488 10.037 759.788 1.72358 752.417Z" fill="#A0A0A0"/>
<path d="M285.97 195.188C284.279 201.307 283.02 221.187 289.658 237.501" stroke="black" stroke-width="5" stroke-linecap="round"/>
<path d="M350.413 90.4141C365.891 102.6 389.913 128.902 366.564 139.602C365.195 140.229 364.44 141.746 364.83 143.193C369.424 160.204 368.697 195.332 333.059 219.12C332.529 219.474 332.121 220 331.927 220.604L324.918 242.537" stroke="black" stroke-width="5" stroke-linecap="round"/>
<path d="M335.094 180.076C334.544 182.494 335.972 187.491 346.075 188.136" stroke="black" stroke-width="5" stroke-linecap="round"/>
<path d="M280.591 241.499C296.347 235.853 326.35 228.944 326.35 248.475V251.864C326.35 254.152 328.964 255.449 330.772 254.047" stroke="#A0A0A0" stroke-width="5" stroke-linecap="round"/>
<path d="M330.771 254.047C356.065 234.45 407.529 195.188 425.662 165.469" stroke="black" stroke-width="5" stroke-linecap="round"/>
<path d="M362.194 116.609C362.194 121.906 360.592 126.565 358.17 129.82C355.748 133.073 352.68 134.742 349.601 134.742C346.521 134.742 343.454 133.073 341.032 129.82C338.61 126.565 337.008 121.906 337.008 116.609C337.008 111.311 338.61 106.652 341.032 103.397C343.454 100.144 346.521 98.4746 349.601 98.4746C352.68 98.4746 355.748 100.144 358.17 103.397C360.592 106.652 362.194 111.311 362.194 116.609Z" stroke="black" stroke-width="5" stroke-linecap="round"/>
<path d="M303.762 132.726L334.993 121.645" stroke="black" stroke-width="5" stroke-linecap="round"/>
<path d="M327.941 111.571C328.736 108.213 331.664 100.488 337.008 96.459" stroke="black" stroke-width="5" stroke-linecap="round"/>
<path d="M351.112 119.631C353.337 119.631 355.142 118.277 355.142 116.608C355.142 114.939 353.337 113.586 351.112 113.586C348.886 113.586 347.082 114.939 347.082 116.608C347.082 118.277 348.886 119.631 351.112 119.631Z" fill="black"/>
<path d="M366.457 320.91C386.696 309.226 434.931 264.399 465.96 178.565" stroke="black" stroke-width="5" stroke-linecap="round"/>
<path d="M337.408 450.07C335.553 430.265 334.068 386.563 342.975 370.188C351.881 353.811 360.438 330.387 366.457 320.91" stroke="#A0A0A0" stroke-width="5" stroke-linecap="round"/>
<path d="M280.591 240.523L164.736 376.528" stroke="#A0A0A0" stroke-width="5" stroke-linecap="round"/>
<path d="M164.736 376.945C173.325 375.785 195.654 376.347 216.266 387.888C242.032 402.314 269.312 427.685 337.008 450.07" stroke="#A0A0A0" stroke-width="5" stroke-linecap="round"/>
<path d="M337.008 450.07L313.836 466.189" stroke="#A0A0A0" stroke-width="5" stroke-linecap="round"/>
<path d="M164.749 376.527C163.179 381.392 161.621 392.739 174.81 406.751" stroke="#A0A0A0" stroke-width="5" stroke-linecap="round"/>
<path d="M249.36 277.799C230.612 293.416 183.072 326.362 142.897 333.214C133.524 337.076 117.387 347.923 127.832 360.416C138.278 372.91 145.242 388.124 147.418 394.168C149.092 399.711 153.259 407.437 163.303 389.705" stroke="#A0A0A0" stroke-width="5" stroke-linecap="round"/>
<path d="M131.49 365.445C123.707 370.035 105.557 378.805 95.2229 377.173C84.8892 375.542 78.0001 379.893 75.8473 382.272C74.688 384.142 73.9594 387.983 80.3185 388.391C86.6776 388.799 94.2293 388.561 97.21 388.391" stroke="#A0A0A0" stroke-width="5" stroke-linecap="round"/>
<path d="M105.297 381.564C101.811 385.47 89.9583 394.348 70.4366 398.609C66.6187 399.319 61.4726 403.402 68.4447 408.197C74.4206 411.926 90.9542 408.517 99.3207 403.402" stroke="#A0A0A0" stroke-width="5" stroke-linecap="round"/>
<path d="M99.23 402.721C92.8272 405.944 81.3021 414.526 86.4244 423.073C88.0661 424.769 94.9942 424.904 109.573 411.879L120.408 402.721" stroke="#A0A0A0" stroke-width="5" stroke-linecap="round"/>
<path d="M120.95 402.915L109.887 412.156C106.702 420.542 101.841 440.908 114.916 429.612C124.47 419.858 122.459 411.541 126.482 409.076C130.505 406.612 139.556 397.097 143.579 392.646" stroke="#A0A0A0" stroke-width="5" stroke-linecap="round"/>
<path d="M121.425 386.602C120.085 390.749 119.012 400.383 125.445 405.743" stroke="#A0A0A0" stroke-width="5" stroke-linecap="round"/>
<path d="M243.316 726.109C249.653 724.43 262.427 715.934 262.827 695.383C263.228 674.831 271.666 639.47 275.834 624.358L316.859 443.019" stroke="#A0A0A0" stroke-width="5" stroke-linecap="round"/>
<path d="M331.97 150.861C333.083 150.861 333.985 150.185 333.985 149.35C333.985 148.515 333.083 147.839 331.97 147.839C330.858 147.839 329.956 148.515 329.956 149.35C329.956 150.185 330.858 150.861 331.97 150.861Z" fill="black"/>
<path d="M338.519 156.906C339.354 156.906 340.03 156.454 340.03 155.898C340.03 155.342 339.354 154.891 338.519 154.891C337.684 154.891 337.008 155.342 337.008 155.898C337.008 156.454 337.684 156.906 338.519 156.906Z" fill="black"/>
<path d="M323.911 160.936C324.468 160.936 324.919 160.034 324.919 158.921C324.919 157.808 324.468 156.906 323.911 156.906C323.355 156.906 322.904 157.808 322.904 158.921C322.904 160.034 323.355 160.936 323.911 160.936Z" fill="black"/>
<path d="M175.057 136.424C199.54 90.9166 236.097 85.195 251.317 88.0219C282.924 39.62 326.574 23.6526 353.164 38.1235C374.437 49.6996 357.011 78.874 345.639 92.0144L334.602 76.0471C326.975 90.817 305.168 85.3611 294.464 82.0345C303.661 101.329 318.345 151.195 287.439 196.303C256.535 241.412 217.702 242.209 198.134 229.236C180.073 216.43 150.573 181.932 175.057 136.424Z" fill="black"/>
<path d="M162.721 732.153C166.06 737.381 177.183 747.246 194.959 744.894" stroke="#A0A0A0" stroke-width="5" stroke-linecap="round"/>
<path d="M190.718 379.55C184.415 397.581 154.882 434.645 128.503 481.227C110.916 510.444 68.9739 575.69 41.8974 602.938C38.2474 608.113 34.8296 619.866 50.3588 625.476C62.3044 630.484 67.6799 642.105 69.2726 654.527C71.2635 670.054 96.6478 681.573 113.571 670.054C127.059 660.871 165.844 594.732 195.145 557.358C202.606 547.842 209.451 540.191 215.108 535.821" stroke="#A0A0A0" stroke-width="5" stroke-linecap="round"/>
<path d="M195.87 557.866L162.721 732.153C179.57 727.658 225.854 719.168 254.398 719.168" stroke="#A0A0A0" stroke-width="5" stroke-linecap="round"/>
<path d="M30.8805 717.75C3.42101 664.521 28.8758 629.099 42.6425 620.328C63.9838 627.041 64.5605 649.417 68.0213 660.045L60.034 681.917C54.6892 691.324 57.8069 709.725 60.034 717.75C69.2658 754.927 55.3321 758.501 48.4941 748.545L30.8805 717.75Z" fill="black"/>
<path d="M177.288 766.559C168.039 759.234 186.333 756.394 204.896 755.324C211.363 761.107 254.317 763.081 256.413 764.419C236.651 770.843 185.394 772.977 177.288 766.559Z" fill="#A0A0A0"/>
<path d="M270.196 763.423C200.065 773.038 185.511 745.3 186.999 729.084C199.06 724.048 232.226 722.216 247.861 721.072C243.393 731.603 248.977 730.229 252.886 733.091C257.912 736.525 271.871 740.722 279.688 741.103C314.865 742.821 287.319 760.944 270.196 763.423Z" fill="black"/>
<path d="M435.397 76.7895C438.61 74.9426 445.236 74.2709 446.042 86.3602" stroke="black" stroke-width="5" stroke-linecap="round"/>
<path d="M428.916 109.029C429.251 104.328 428.916 93.6152 424.886 88.3765C419.849 81.8281 418.841 69.2351 428.916 70.2426C432.113 70.5624 434.148 73.2193 435.397 76.7909C437.296 82.22 437.38 89.7623 436.975 94.4211" stroke="black" stroke-width="5" stroke-linecap="round"/>
<path d="M422.583 122.125C422.175 117.592 420.453 107.114 416.826 101.473C412.293 94.4208 411.789 76.2869 421.36 78.3018" stroke="black" stroke-width="5" stroke-linecap="round"/>
<path d="M428.916 156.378C426.397 156.378 421.058 153.96 419.849 144.289C418.64 134.617 414.308 128.506 412.293 126.658C411.117 123.804 409.875 117.894 414.308 117.088C416.918 116.613 420.005 119.143 422.583 122.125L426.901 128.17" stroke="black" stroke-width="5" stroke-linecap="round"/>
<path d="M452.086 111.547C453.262 109.365 454.404 103.79 449.568 98.9544C443.523 92.9098 445.034 87.3689 448.56 85.8577C452.086 84.3466 457.124 85.354 462.161 100.466C467.198 113.562 474.653 146.808 466.191 175.016" stroke="black" stroke-width="5" stroke-linecap="round"/>
<path d="M475.098 32.7288L483.002 18.3594" stroke="black" stroke-width="5" stroke-linecap="round"/>
<path d="M406.752 39.5156L420.856 48.5826" stroke="black" stroke-width="5" stroke-linecap="round"/>
<path d="M432.343 3L446.141 34.7252" stroke="black" stroke-width="5" stroke-linecap="round"/>
<path d="M481.182 76.3067C481.182 65.7301 483.642 48.0746 496.436 64.0644C504.308 75.5572 507.261 98.4427 501.356 110.035" stroke="black" stroke-width="5" stroke-linecap="round"/>
<path d="M455.104 86.0514C453.464 80.2219 452.644 69.3621 462.484 72.56L473.309 94.546" stroke="black" stroke-width="5" stroke-linecap="round"/>
<path d="M473.309 94.5462L462.484 72.5602C461.664 66.0643 465.929 55.571 476.262 64.0655L481.183 76.3078L486.103 88.55" stroke="black" stroke-width="5" stroke-linecap="round"/>
<path d="M486.34 125.65C483.653 131.528 480.799 144.892 490.873 151.34" stroke="black" stroke-width="5" stroke-linecap="round"/>
<path d="M498.933 117.087C501.283 110.372 508.403 97.0396 518.074 97.4425C527.745 97.8455 520.089 110.539 518.074 115.072L503.97 142.777C500.947 150.333 496.414 163.933 506.992 179.548C517.57 193.653 554.048 229.92 593.338 235.965" stroke="black" stroke-width="5" stroke-linecap="round"/>
<path d="M586.076 446.52C589.098 457.267 600.18 482.184 620.329 495.885M554.845 428.89L594.639 440.476L554.845 428.89ZM592.624 460.625C596.989 446.352 602.598 410.958 590.106 383.555C574.49 349.303 564.92 305.479 572.475 276.263C578.52 252.891 600.515 249.398 610.758 250.573C626.877 252.423 654.682 271.73 653.071 324.117C651.056 389.6 635.944 445.513 614.284 488.833L592.624 460.625Z" stroke="#A0A0A0" stroke-width="5" stroke-linecap="round"/>
<path d="M576.505 484.3C576.505 458.61 576.337 440.476 573.483 433.424C612.169 447.931 659.115 444.17 677.753 440.476C678.257 441.652 682.387 452.867 694.879 488.329C710.495 532.657 699.413 680.75 694.879 697.373C690.346 713.996 678.257 714.499 660.626 712.485C646.522 710.873 627.885 672.187 620.329 653.046C585.068 587.058 576.505 514.443 576.505 484.3Z" fill="black"/>
<path d="M713.284 350.345C718.281 362.602 729.584 393.765 734.822 420.362C720.382 430.604 679.768 450.046 631.411 444.001L554.845 428.89C551.823 403.537 551.468 338.961 571.617 281.335C571.617 276.131 576.908 261.554 588.594 255.106" stroke="#A0A0A0" stroke-width="5" stroke-linecap="round"/>
<path d="M708.984 394.133C708.768 390.899 714.737 367.368 713.285 350.345C712.475 340.852 711.439 329.008 710.141 314.581C706.514 274.283 692.174 243.389 685.458 232.978C678.742 222.568 662.851 216.32 650.258 220.854" stroke="#A0A0A0" stroke-width="5" stroke-linecap="round"/>
<path d="M699.314 664.082C703.656 569.604 684.399 480.337 673.723 445.512C700.647 441.879 721.856 430.241 729.636 426.371C737.453 455.846 748.892 531.517 753.596 566.172C765.322 604.125 762.824 658.699 760.11 681.241C761.847 694.969 750.702 700.42 744.911 701.429C714.079 711.523 701.666 680.737 699.314 664.082Z" fill="black"/>
<path d="M454.102 84.3457C462.665 98.1141 475.359 131.494 465.687 179.045C466.526 189.287 481.474 223.156 492.888 238.484C510.518 262.158 547.29 288.856 569.957 296.411" stroke="black" stroke-width="5" stroke-linecap="round"/>
<path d="M610.388 228.122C603.724 224.021 553.595 227.974 543.849 164.917C527.163 165.113 518.09 151.445 530.822 145.596C544.393 138.597 543.376 125.748 540.917 118.177C537.007 108.249 536.771 97.8248 537.613 95.6445" stroke="black" stroke-width="5" stroke-linecap="round"/>
<path d="M557.692 142.252C555.309 142.28 553.342 139.404 553.301 135.828C553.259 132.253 555.157 129.331 557.541 129.303C559.925 129.276 561.891 132.152 561.933 135.727C561.975 139.303 560.076 142.224 557.692 142.252Z" fill="black"/>
<path d="M567.866 121.333C565.082 118.358 557.883 114.004 551.36 120.399" stroke="black" stroke-width="5" stroke-linecap="round"/>
<path d="M586.775 179.277C581.659 187.15 576.042 189.386 565.131 184.305" stroke="black" stroke-width="5" stroke-linecap="round"/>
<path d="M628.66 124.094C629.845 126.697 630.838 132.607 625.328 135.419" stroke="black" stroke-width="5" stroke-linecap="round"/>
<path d="M687.388 97.3614C693.879 132.879 673.567 159.615 658.841 180.169C643.114 171.673 617.339 151.467 627.224 149.286C637.616 146.994 648.575 118.652 638.484 109.982C626.645 99.8093 615.973 115.2 613.94 126.871L604.404 110.381C607.1 98.847 608.158 78.6152 590.817 89.9573C573.476 101.299 548.039 98.3282 537.488 95.4249C516.685 80.5344 484.363 45.8014 521.506 25.9942C552.399 9.52016 592.598 30.3479 617.137 49.0627C633.753 44.6764 678.537 48.9345 687.388 97.3614Z" fill="black"/>
<path d="M657.687 177.79C650.176 186.831 646.446 194.338 646.91 209.89" stroke="black" stroke-width="5" stroke-linecap="round"/>
<path d="M704.319 772.672C641.858 775.19 612.138 762.659 612.138 754.034C612.138 750.508 610.123 746.982 624.227 741.945C618.183 750.173 620.399 765.821 677.622 762.597C686.856 763.101 707.643 760.683 716.912 746.982H721.445C766.78 735.397 793.477 744.907 793.477 753.53C793.477 762.155 756.202 770.58 704.319 772.672Z" fill="#A0A0A0"/>
<path d="M716.024 746.761C749.763 749.985 754.018 722.918 751.929 708.982" stroke="#A0A0A0" stroke-width="5" stroke-linecap="round"/>
<path d="M671.334 722.079C671.334 724.262 670.83 729.03 668.815 730.642C666.297 732.657 620.962 727.62 621.969 750.287C621.466 753.478 626.503 758.347 638.592 759.858C655.596 761.984 704.337 768.189 716.025 746.761C716.705 745.514 717.26 744.172 717.676 742.732L722.21 723.59" stroke="#A0A0A0" stroke-width="5" stroke-linecap="round"/>
</svg>
