<svg width="608" height="506" viewBox="0 0 608 506" fill="none" xmlns="http://www.w3.org/2000/svg">
<path d="M136.475 221.972C126.054 217.557 114.594 215.114 102.563 215.114C54.5185 215.114 15.5708 254.063 15.5708 302.106C15.5708 350.151 54.5185 389.099 102.563 389.099C150.607 389.099 189.555 350.151 189.555 302.106C189.555 281.107 182.115 261.847 169.726 246.815" stroke="black" stroke-width="5" stroke-linecap="round"/>
<path d="M318.568 143.604C331.101 185.134 382.854 276.45 489.604 309.478" stroke="black" stroke-width="5" stroke-linecap="round"/>
<path d="M489.604 320.537C492.799 365.017 497.271 460.167 489.604 484.938" stroke="black" stroke-width="5" stroke-linecap="round"/>
<path d="M494.027 495.259C513.441 506.809 553.299 514.131 557.428 451.025C561.556 387.919 554.234 308.25 550.056 276.304" stroke="black" stroke-width="5" stroke-linecap="round"/>
<path d="M562.589 293.259C582.494 270.406 641.472 188.574 572.91 69.1445" stroke="black" stroke-width="5" stroke-linecap="round"/>
<path d="M555.954 49.2428C521.304 13.8525 502.874 0.451937 479.283 19.7543C470.436 26.9925 468.224 43.3443 481.494 63.9865" stroke="black" stroke-width="5" stroke-linecap="round"/>
<path d="M292.765 59.5583C289.816 40.3905 295.794 10.3008 321.517 3.53053C335.524 -0.156151 354.692 16.248 359.852 25.648" stroke="black" stroke-width="5" stroke-linecap="round"/>
<path d="M385.655 110.429C397.184 159.486 439.318 251.929 515.72 229.982C515.996 229.902 516.267 229.796 516.52 229.66C536.302 219.027 556.167 178.487 519.83 122.224" stroke="black" stroke-width="5" stroke-linecap="round"/>
<path d="M390.079 122.961L478.545 69.1434C492.617 58.4685 527.478 39.842 555.606 49.5838C556.319 49.8312 556.947 50.2784 557.435 50.8554L570.811 66.6622C572.06 68.1384 572.209 70.2582 571.151 71.8771C552.91 99.7897 539.676 106.529 514.669 122.961" stroke="black" stroke-width="5" stroke-linecap="round"/>
<path d="M328.152 170.881L185.131 271.143" stroke="black" stroke-width="5" stroke-linecap="round"/>
<path d="M409.984 171.619C462.327 148.764 460.115 148.764 515.407 122.963" stroke="black" stroke-width="5" stroke-linecap="round"/>
<path d="M190.292 287.363L345.845 204.794" stroke="black" stroke-width="5" stroke-linecap="round"/>
<path d="M428.124 139.24L489.313 104.591" stroke="black" stroke-width="5" stroke-linecap="round"/>
<path d="M316.356 130.334C311.048 139.181 301.612 145.079 294.24 150.24L35.4747 351.501C31.1483 354.092 27.6227 350.041 26.1483 347.092C23.49 341.776 25.8909 339.023 27.3652 337.494C119.764 241.655 269.469 87.4276 285.393 69.1445" stroke="black" stroke-width="5" stroke-linecap="round"/>
<path d="M359.853 25.6484C368.221 36.6323 377.76 52.6818 385.214 67.9781C385.506 68.5769 385.655 69.2336 385.655 69.8997V111.903" stroke="black" stroke-width="5" stroke-linecap="round"/>
<path d="M162.724 226.969L284.366 114.175" stroke="black" stroke-width="5" stroke-linecap="round"/>
<path d="M280.97 221.749L320.042 194.472" stroke="black" stroke-width="5" stroke-linecap="round"/>
<path d="M316.356 131.07C322.009 116.326 343.339 83.1523 383.444 68.4072" stroke="black" stroke-width="5" stroke-linecap="round"/>
<path d="M286.13 68.4073C303.579 57.1032 345.108 36.7068 371.648 45.5534" stroke="black" stroke-width="5" stroke-linecap="round"/>
<path d="M60.5411 453.974C93.5208 453.974 120.256 447.373 120.256 439.23C120.256 431.087 93.5208 424.485 60.5411 424.485C27.5615 424.485 0.826172 431.087 0.826172 439.23C0.826172 447.373 27.5615 453.974 60.5411 453.974Z" fill="black"/>
<path d="M24.4175 263.773C38.6705 253.206 65.7019 239.442 98.8769 263.773" stroke="black" stroke-width="5" stroke-linecap="round"/>
<path d="M117.307 288.839C128.12 301.125 146.501 336.906 133.526 381.729" stroke="black" stroke-width="5" stroke-linecap="round"/>
</svg>
