<svg width="1656" height="772" viewBox="0 0 1656 772" fill="none" xmlns="http://www.w3.org/2000/svg">
<path d="M266.597 734.528C318.133 716.718 287.426 570.671 263.547 517.798C227.561 551.444 163.183 536.93 158.231 523.405C156.743 531.383 151.976 567.115 131.095 598.728C110.215 630.34 83.1252 646.781 78.3382 660.506C66.6761 693.899 92.2216 711.152 104.994 715.048C149.866 725.289 187.74 674.791 201.068 648.261C220.171 726.625 252.714 738.424 266.597 734.528Z" fill="black"/>
<path d="M276.571 726.188C276.189 732.014 278.821 751.558 294.006 740.846C297.751 737.088 306.604 730.923 312.003 736.336C317.402 741.748 306.75 751.746 300.755 756.068C294.568 760.955 279.383 769.26 268.135 763.397C256.887 757.534 257.067 742.162 258.574 735.208" stroke="black" stroke-width="5" stroke-linecap="round"/>
<path d="M92.5498 706.638C88.6332 708.491 80.7999 713.639 80.7999 719.418C85.2761 725.716 92.4379 741.2 85.2761 752.757C78.1143 764.315 65.1335 737.94 59.5383 723.308C56.7407 714.973 56.405 696.525 77.4428 689.413" stroke="black" stroke-width="5" stroke-linecap="round"/>
<path d="M259.479 759.693C257.089 764.24 247.698 770.933 229.202 761.33" stroke="#A0A0A0" stroke-width="5" stroke-linecap="round"/>
<path d="M247.204 751.521C241.876 756.561 227.619 764.854 209.563 757.764" stroke="#A0A0A0" stroke-width="5" stroke-linecap="round"/>
<path d="M221.838 748.252C215.094 755.901 196.325 768.249 175.196 756.448" stroke="#A0A0A0" stroke-width="5" stroke-linecap="round"/>
<path d="M192.38 744.166C190.707 751.075 168.073 765.815 90.9134 769.5" stroke="#A0A0A0" stroke-width="5" stroke-linecap="round"/>
<path d="M197.613 464.679C167.013 455.86 142.937 428.021 134.724 415.203C125.55 401.423 132.912 370.616 235.749 357.623" stroke="black" stroke-width="5" stroke-linecap="round"/>
<path d="M198.107 464.678C199.936 462.136 204.741 457.541 210.382 457.323" stroke="black" stroke-width="5" stroke-linecap="round"/>
<path d="M210.382 457.324C210.209 450.114 204.076 431.521 180.924 414.828" stroke="black" stroke-width="5" stroke-linecap="round"/>
<path d="M208.745 410.742C211.147 407.022 218.907 393.773 229.202 391.946" stroke="black" stroke-width="5" stroke-linecap="round"/>
<path d="M230.969 467.947C236.277 467.704 247.363 466.973 249.243 465.998C251.592 464.779 252.114 464.779 252.114 462.342C252.114 459.905 230.969 464.048 230.969 456.249C232.884 454.462 235.982 450.449 233.058 448.694C230.134 446.94 224.008 452.025 221.311 454.787C218.526 457.549 212.279 461.904 209.563 457.224" stroke="black" stroke-width="5" stroke-linecap="round"/>
<path d="M198.107 464.678C200.432 471.416 208.8 483.509 223.677 477.982C238.554 472.456 239.174 469.539 237.624 468.772" stroke="black" stroke-width="5" stroke-linecap="round"/>
<path d="M301.211 457.324C304.725 456.388 312.405 452.035 315.015 442.107C317.626 432.18 314.095 432.132 312.003 433.348" stroke="black" stroke-width="5" stroke-linecap="round"/>
<path d="M287.3 450.786C288.456 444.981 292.53 433.782 299.574 435.421" stroke="black" stroke-width="5" stroke-linecap="round"/>
<path d="M290.248 441.274C285.563 437.368 282.694 446.328 281.845 451.297C276.55 452.941 274.546 460.719 274.207 464.403C286.462 465.678 295.171 462.339 300.687 458.373C304.064 455.945 306.243 453.281 307.307 451.297C309.938 444.187 313.774 429.351 308.071 426.884C302.367 424.417 300.772 429.968 300.687 433.051C301.298 440.041 297.716 447.785 295.849 450.783" stroke="black" stroke-width="5" stroke-linecap="round"/>
<path d="M168.988 471.216C158.525 485.413 144.889 524.075 168.988 532.276C203.21 542.42 273.965 544.411 283.208 471.216" stroke="black" stroke-width="5" stroke-linecap="round"/>
<path d="M279.117 364.161C283.514 361.479 316.596 364.064 323.028 322.833C334.039 322.96 340.026 314.023 331.625 310.198C322.668 305.622 323.34 297.22 324.963 292.27C327.543 285.778 327.699 278.962 327.142 277.536" stroke="black" stroke-width="5" stroke-linecap="round"/>
<path d="M313.506 308.05C314.749 308.065 315.775 306.567 315.797 304.705C315.818 302.843 314.828 301.322 313.586 301.308C312.343 301.293 311.317 302.791 311.295 304.653C311.274 306.515 312.263 308.036 313.506 308.05Z" fill="black"/>
<path d="M306.938 293.88C308.871 292.157 313.867 289.636 318.394 293.339" stroke="black" stroke-width="5" stroke-linecap="round"/>
<path d="M294.664 332.29C298.146 337.271 301.968 338.686 309.393 335.471" stroke="black" stroke-width="5" stroke-linecap="round"/>
<path d="M267.377 296.332C266.693 298.023 266.121 301.86 269.298 303.687" stroke="black" stroke-width="5" stroke-linecap="round"/>
<path d="M229.197 278.599C224.955 301.978 238.226 319.577 247.846 333.107C258.121 327.514 274.962 314.214 268.503 312.778C261.715 311.27 254.555 292.613 261.147 286.906C268.882 280.21 275.854 290.341 277.183 298.023L283.412 287.169C281.65 279.577 280.96 266.26 292.289 273.725C303.619 281.191 320.237 279.235 327.131 277.324C340.722 267.523 361.838 244.66 337.572 231.622C317.389 220.778 291.125 234.488 275.093 246.807C264.238 243.919 234.98 246.722 229.197 278.599Z" fill="black"/>
<path d="M248.022 331.472C253.136 337.457 255.677 342.426 255.361 352.72" stroke="black" stroke-width="5" stroke-linecap="round"/>
<path d="M242.613 365.993C240.859 359.907 239.832 348.299 249.75 350.555C262.148 353.375 287.418 365.572 285.567 372.333" stroke="black" stroke-width="5" stroke-linecap="round"/>
<path d="M270.116 454.872L240.658 456.506" stroke="black" stroke-width="5" stroke-linecap="round"/>
<path d="M170.286 459.729L10.1753 466.114C7.41865 466.224 5.09391 464.08 4.98025 461.324L2.74519 407.116C2.63137 404.356 4.778 402.026 7.53857 401.914L132.568 396.85" stroke="black" stroke-width="5" stroke-linecap="round"/>
<path d="M318.661 451.603L427.294 448.148C429.993 448.062 432.135 445.85 432.135 443.15V393.091C432.135 390.241 429.757 387.968 426.91 388.096L221.02 397.39" stroke="black" stroke-width="5" stroke-linecap="round"/>
<path d="M20.541 420.549L26.0012 443.254C26.3653 444.768 28.2433 445.304 29.3512 444.21L34.0812 439.538C34.8398 438.789 36.0526 438.767 36.8384 439.487L42.314 444.509C43.4107 445.514 45.1827 445.013 45.5895 443.581L49.999 428.067" stroke="black" stroke-width="7" stroke-linecap="round"/>
<path d="M60.6367 419.732L66.0969 442.437C66.461 443.951 68.339 444.487 69.4469 443.392L74.1769 438.721C74.9355 437.972 76.1483 437.949 76.9341 438.67L82.4097 443.691C83.5064 444.697 85.2784 444.196 85.6852 442.764L90.0947 427.25" stroke="black" stroke-width="7" stroke-linecap="round"/>
<path d="M101.551 418.914L107.011 441.62C107.375 443.134 109.253 443.669 110.361 442.575L115.091 437.904C115.85 437.155 117.062 437.132 117.848 437.853L123.324 442.874C124.421 443.88 126.192 443.378 126.599 441.947L131.009 426.433" stroke="black" stroke-width="7" stroke-linecap="round"/>
<ellipse cx="141.646" cy="442.614" rx="2.45484" ry="2.45165" fill="black"/>
<path d="M376.492 669.8V658.359" stroke="#A0A0A0" stroke-width="5" stroke-linecap="round"/>
<path d="M391.221 664.896L384.674 669.8" stroke="#A0A0A0" stroke-width="5" stroke-linecap="round"/>
<path d="M368.31 671.434L363.4 662.445" stroke="#A0A0A0" stroke-width="5" stroke-linecap="round"/>
<path d="M556.513 552.121C509.515 552.121 471.412 514.067 471.412 467.13C471.412 420.191 509.515 382.14 556.513 382.14C603.511 382.14 641.614 420.191 641.614 467.13C641.614 514.067 603.511 552.121 556.513 552.121Z" stroke="#A0A0A0" stroke-width="10"/>
<path d="M482.05 392.008C496.865 377.151 515.74 367.033 536.288 362.933C556.839 358.834 578.138 360.938 597.493 368.979C616.852 377.02 633.395 390.636 645.038 408.107C656.677 425.578 662.89 446.12 662.89 467.13" stroke="#A0A0A0" stroke-width="15" stroke-linecap="round"/>
<path d="M556.514 494.915C540.696 494.915 527.874 482.293 527.874 466.722C527.874 451.15 540.696 438.528 556.514 438.528C572.331 438.528 585.153 451.15 585.153 466.722C585.153 482.293 572.331 494.915 556.514 494.915Z" stroke="#A0A0A0" stroke-width="10"/>
<path d="M556.513 539.862C516.294 539.862 483.686 507.297 483.686 467.13C483.686 426.961 516.294 394.398 556.513 394.398C596.732 394.398 629.34 426.961 629.34 467.13C629.34 507.297 596.732 539.862 556.513 539.862Z" stroke="#A0A0A0" stroke-width="5"/>
<path d="M556.922 453.238C549.467 453.238 543.421 459.276 543.421 466.722C543.421 474.167 549.467 480.206 556.922 480.206C564.377 480.206 570.424 474.167 570.424 466.722C570.424 459.276 564.377 453.238 556.922 453.238Z" fill="#A0A0A0"/>
<path d="M673.527 286.315C667.389 284.097 656.754 287.944 652.81 298.106C647.055 312.939 628.447 319.214 621.158 319.214" stroke="#A0A0A0" stroke-width="10" stroke-linecap="round"/>
<path d="M612.157 340.462C645.568 341.855 666.916 345.193 684.983 350.268" stroke="#A0A0A0" stroke-width="10" stroke-linecap="round"/>
<path d="M626.886 295.515L557.332 464.679" stroke="#A0A0A0" stroke-width="10" stroke-linecap="round"/>
<path d="M689.893 189.277V554.607C689.893 564.507 700.571 572.551 713.919 572.551H1520.15C1533.5 572.551 1544.18 564.507 1544.18 554.607V188.051" stroke="#A0A0A0" stroke-width="5" stroke-miterlimit="10" stroke-linecap="round"/>
<path d="M992.732 1.75623L958.322 131.567C958.3 131.65 958.288 131.736 958.288 131.823V179.444C958.288 179.88 958.019 180.262 957.603 180.393C863.423 209.872 686.395 192.703 645.538 180.376C645.119 180.25 644.888 179.879 644.888 179.441V131.998C644.888 131.799 644.947 131.604 645.058 131.439L733.024 0.941052C733.21 0.665307 733.521 0.5 733.854 0.5H991.766C992.422 0.5 992.9 1.12173 992.732 1.75623Z" fill="#A0A0A0"/>
<path d="M1517.45 1.06436L1581.31 133.014C1581.37 133.15 1581.41 133.299 1581.41 133.45V175.037C1581.41 175.262 1581.36 175.45 1581.21 175.621C1559.5 200.912 1284.67 198.383 1270.67 186.231C1270.49 186.069 1270.46 185.887 1270.46 185.64V133.221L1254.64 1.61937C1254.57 1.02404 1255.03 0.5 1255.63 0.5H1516.55C1516.93 0.5 1517.28 0.719237 1517.45 1.06436Z" fill="#A0A0A0"/>
<path d="M1256.24 3.43234L1270.46 131.198V184.147C1270.46 184.535 1270.27 184.871 1269.92 185.033C1214.32 210.502 993.255 216.503 958.538 179.768C958.366 179.586 958.288 179.36 958.288 179.11V131.324C958.288 131.24 958.299 131.156 958.32 131.075L991.235 3.29352C991.349 2.85173 991.748 2.54297 992.204 2.54297H1255.25C1255.76 2.54297 1256.18 2.92599 1256.24 3.43234Z" stroke="#A0A0A0" stroke-width="5" stroke-linecap="round"/>
<rect x="1032.8" y="276.767" width="394.32" height="218.917" rx="7.5" stroke="#A0A0A0" stroke-width="5"/>
<rect x="824.954" y="121.496" width="584.16" height="103.69" rx="7.5" fill="white" stroke="black" stroke-width="5" stroke-dasharray="30 30"/>
<path d="M638.342 586.603C627.198 581.405 600.076 571.343 580.724 572.67C577.979 572.78 573.837 573.931 579.212 577.646C584.588 581.362 587.275 583.286 587.947 583.784C590.746 586.106 593.491 591.016 582.068 592.077C567.79 593.404 527.474 578.973 447.683 589.589" stroke="#A0A0A0" stroke-width="5" stroke-linecap="round"/>
<path d="M1647.18 432.065C1631.51 436.406 1614.53 461.609 1608 473.668C1617.8 472.462 1640 466.071 1650.45 450.153C1660.89 434.235 1652.62 431.462 1647.18 432.065Z" fill="#A0A0A0"/>
<path d="M1639.93 391.24C1624.29 392.816 1613.04 431.372 1608 449.151C1619.2 440.008 1641.27 421.72 1646.65 415.624C1656.73 404.194 1655.05 389.716 1639.93 391.24Z" fill="#A0A0A0"/>
<path d="M1589.42 374.392C1578.96 390.837 1601.63 415.545 1612.09 431.99C1612.09 421.636 1612.09 399.973 1612.09 390.837C1612.09 376.22 1596.98 362.518 1589.42 374.392Z" fill="#A0A0A0"/>
<path d="M1609.64 456.506C1597.87 440.176 1572.74 411.871 1566.33 429.289C1558.31 451.063 1608.03 456.506 1609.64 456.506Z" fill="#A0A0A0"/>
<path d="M1609.64 481.023L1608 419.732" stroke="#A0A0A0" stroke-width="5" stroke-linecap="round"/>
<path d="M1593.37 527.269C1597.34 517.633 1603.25 492.906 1604.49 481.023H1621.16C1621.9 495.667 1629.49 516.671 1633.2 527.269C1644.31 552.319 1634.74 568.376 1627.64 572.551H1600.78C1583.18 566.77 1587.82 540.757 1593.37 527.269Z" stroke="#A0A0A0" stroke-width="5"/>
<path d="M1565.45 616.681V606.874" stroke="#A0A0A0" stroke-width="5" stroke-linecap="round"/>
<path d="M1576.09 612.595L1571.18 616.681" stroke="#A0A0A0" stroke-width="5" stroke-linecap="round"/>
<path d="M1558.9 617.498L1554.81 610.96" stroke="#A0A0A0" stroke-width="5" stroke-linecap="round"/>
<path d="M1296.24 669.8V659.993" stroke="#A0A0A0" stroke-width="5" stroke-linecap="round"/>
<path d="M1306.88 665.714L1301.97 669.8" stroke="#A0A0A0" stroke-width="5" stroke-linecap="round"/>
<path d="M1289.69 670.617L1285.6 664.079" stroke="#A0A0A0" stroke-width="5" stroke-linecap="round"/>
<path d="M1205.41 679.462C1182.31 668.632 1126.08 647.671 1085.97 650.435C1080.28 650.663 1071.69 653.062 1082.84 660.802C1093.98 668.543 1099.55 672.551 1100.94 673.588C1106.74 678.426 1112.43 688.654 1088.75 690.866C1059.16 693.63 975.584 663.567 810.18 685.682" stroke="#A0A0A0" stroke-width="5" stroke-linecap="round"/>
<path d="M774.176 356.913C774.176 311.269 811.178 274.267 856.822 274.267C902.466 274.267 939.468 311.269 939.468 356.913V572.551H774.176V356.913Z" fill="#A0A0A0"/>
</svg>
