<svg width="600" height="506" viewBox="0 0 600 506" fill="none" xmlns="http://www.w3.org/2000/svg">
<path d="M521.167 233.405V177.641C521.167 166.595 512.213 157.641 501.167 157.641H228.34C217.294 157.641 208.34 166.595 208.34 177.641V353.177C208.34 364.223 217.294 373.177 228.34 373.177H390.931" stroke="#A0A0A0" stroke-width="7" stroke-linecap="round"/>
<path d="M244.989 318.314H307.816" stroke="#A0A0A0" stroke-width="7" stroke-linecap="round"/>
<path d="M328.759 318.314H337.921" stroke="#A0A0A0" stroke-width="7" stroke-linecap="round"/>
<rect x="212.267" y="186.379" width="304.974" height="36.5759" fill="black"/>
<ellipse cx="470.12" cy="324.845" rx="37.9581" ry="37.8822" fill="#A0A0A0"/>
<path d="M84.3103 413.389C11.089 375.075 -2.0592 302.801 0.521078 271.064C0.538293 270.853 0.699649 270.694 0.909892 270.663C38.3575 265.241 71.7828 236.91 84.1896 223.032C84.3655 222.835 84.6696 222.845 84.8551 223.033C122.376 260.993 134.271 261.658 170.827 270.631C171.024 270.679 171.172 270.859 171.18 271.062C174.244 353.933 114.954 400.413 84.6956 413.408C84.5702 413.462 84.4313 413.452 84.3103 413.389Z" fill="black"/>
<path d="M62.2793 313.548L78.6805 335.989C78.8632 336.239 79.2368 336.237 79.418 335.986L109.239 294.65" stroke="white" stroke-width="5" stroke-linecap="round"/>
<path d="M497.691 290.866C501.419 289.606 505.418 288.922 509.58 288.922C529.761 288.922 546.121 305.005 546.121 324.845C546.121 344.684 529.761 360.767 509.58 360.767C505.418 360.767 501.419 360.083 497.691 358.823" stroke="#A0A0A0" stroke-width="5" stroke-linecap="round"/>
<path d="M104.607 187.033C133.592 81.2491 230.586 3.5 345.776 3.5C483.847 3.5 595.776 115.205 595.776 253C595.776 390.795 483.847 502.5 345.776 502.5C269.034 502.5 200.367 467.991 154.508 413.673" stroke="#A0A0A0" stroke-width="7" stroke-linecap="round"/>
</svg>
