<svg width="658" height="772" viewBox="0 0 658 772" fill="none" xmlns="http://www.w3.org/2000/svg">
<path d="M395.055 105.408C402.313 104.748 419.363 109.043 430.849 131.08C431.231 131.812 432.295 131.825 432.672 131.09C444.362 108.288 458.826 85.4311 503.758 112.772C504.645 113.311 505.804 112.305 505.382 111.358C498.225 95.3315 494.849 65.8682 528.312 50.9477C529.18 50.5606 529.13 49.2678 528.217 49.0014L520.744 46.8197C519.713 46.519 519.828 45.1246 520.898 45.0414C530.021 44.3323 542.018 45.0113 537.694 50.2569C532.472 56.5923 531.188 60.5978 532.461 67.212" stroke="black" stroke-width="5" stroke-linecap="round"/>
<path fill-rule="evenodd" clip-rule="evenodd" d="M42.1142 350.879C40.034 348.414 36.0603 350.514 36.9302 353.618L39.2262 361.811C39.9121 364.259 37.4312 366.394 35.1097 365.354L27.3355 361.872C24.3911 360.553 21.7246 364.169 23.8569 366.589L29.4806 372.971C31.1622 374.879 29.855 377.88 27.3119 377.949L18.8002 378.181C15.5751 378.268 14.7437 382.684 17.7159 383.94L25.5483 387.25C27.8926 388.241 28.0182 391.513 25.7567 392.677L18.1955 396.57C15.328 398.047 16.496 402.387 19.7189 402.231L28.2113 401.82C30.7533 401.696 32.2872 404.592 30.7552 406.621L25.6368 413.402C23.6945 415.975 26.6305 419.381 29.466 417.844L36.9425 413.791C39.1787 412.579 41.8169 414.524 41.3182 417.017L39.652 425.346C39.0198 428.507 43.1427 430.304 45.0297 427.691L50.0096 420.793C51.4975 418.732 54.7171 419.341 55.3508 421.803L57.4701 430.036C58.2737 433.158 62.7671 432.991 63.3318 429.818L64.8229 421.44C65.2682 418.938 68.4315 418.091 70.0718 420.034L75.5626 426.54C77.6428 429.004 81.6165 426.904 80.7466 423.8L78.4506 415.607C77.7647 413.159 80.2456 411.024 82.5671 412.064L90.3413 415.546C93.2857 416.865 95.9522 413.249 93.8199 410.829L88.1962 404.447C86.5146 402.539 87.8218 399.538 90.3649 399.469L98.8765 399.238C102.102 399.15 102.933 394.734 99.9609 393.478L92.1285 390.168C89.7842 389.178 89.6586 385.905 91.9201 384.741L99.4813 380.848C102.349 379.371 101.181 375.031 97.9579 375.187L89.4654 375.599C86.9235 375.722 85.3896 372.826 86.9216 370.797L92.04 364.016C93.9823 361.443 91.0462 358.037 88.2108 359.574L80.7343 363.627C78.4981 364.839 75.8599 362.894 76.3586 360.401L78.0248 352.072C78.657 348.912 74.5341 347.114 72.6471 349.728L67.6672 356.625C66.1793 358.686 62.9597 358.077 62.3259 355.615L60.2067 347.382C59.4031 344.26 54.9097 344.427 54.345 347.6L52.8539 355.978C52.4086 358.48 49.2453 359.327 47.605 357.384L42.1142 350.879ZM44.7772 381.276C45.6347 382.895 45.018 384.907 43.3894 385.768C41.7607 386.628 39.7479 386.005 38.8903 384.386C38.0328 382.768 38.6495 380.755 40.2781 379.895C41.9068 379.034 43.9196 379.657 44.7772 381.276ZM49.1979 378.94C51.3498 383.002 49.7972 388.037 45.7301 390.186C41.663 392.335 36.6214 390.784 34.4696 386.722C32.3177 382.661 33.8703 377.626 37.9374 375.477C42.0045 373.327 47.046 374.878 49.1979 378.94ZM78.174 397.114C79.8027 396.253 80.4194 394.241 79.5618 392.622C78.7043 391.004 76.6914 390.381 75.0628 391.241C73.4341 392.102 72.8175 394.114 73.675 395.733C74.5325 397.351 76.5454 397.974 78.174 397.114ZM80.5147 401.532C84.5819 399.383 86.1345 394.348 83.9826 390.286C81.8307 386.224 76.7892 384.674 72.7221 386.823C68.6549 388.972 67.1023 394.007 69.2542 398.069C71.4061 402.131 76.4476 403.681 80.5147 401.532ZM60.481 367.54C60.3988 366.163 59.2141 365.112 57.835 365.193C56.4559 365.274 55.4045 366.457 55.4867 367.834L57.9711 409.468C58.0533 410.845 59.2379 411.896 60.6171 411.815C61.9962 411.734 63.0476 410.551 62.9654 409.174L60.481 367.54Z" fill="black"/>
<path d="M654.776 241.36C654.776 267.044 633.735 287.908 607.726 287.908C581.717 287.908 560.676 267.044 560.676 241.36C560.676 215.676 581.717 194.812 607.726 194.812C633.735 194.812 654.776 215.676 654.776 241.36Z" stroke="black" stroke-width="5"/>
<path d="M608.165 263.256V270.263" stroke="black" stroke-width="5" stroke-linecap="round"/>
<path d="M608.165 219.464V212.457" stroke="black" stroke-width="5" stroke-linecap="round"/>
<path d="M620.442 222.439C617.328 220.893 612.598 219.447 608.176 219.464C602.847 219.484 597.964 221.629 596.891 228.286C595.476 237.065 606.202 240.217 612.592 243.389C621.424 247.774 621.344 255.994 616.026 259.955C613.635 261.736 610.92 262.713 608.176 263.082C604.166 263.622 600.096 262.863 596.891 261.416" stroke="black" stroke-width="5" stroke-linecap="round"/>
<path d="M344.628 136.258C337.027 111.005 338.415 59.6555 404.702 55.2419C470.477 50.8625 480.562 51.7375 491.524 53.4891" stroke="black" stroke-width="5" stroke-linecap="round"/>
<path d="M219.656 609.219C239.796 594.61 284.128 567.963 300.246 578.233C320.386 591.07 307.527 592.84 297.241 590.184" stroke="black" stroke-width="5" stroke-linecap="round"/>
<path d="M278.815 590.61C289.191 589.058 310.124 589.255 310.818 602.47C311.21 610.175 309.083 608.894 305.192 606.487C302.402 604.766 298.707 602.47 294.379 602.47H275.784" stroke="black" stroke-width="5" stroke-linecap="round"/>
<path d="M275.784 603.088H294.491C298.845 603.088 302.563 605.432 305.37 607.19C308.116 612.164 310.149 621.337 296.236 618.222C282.323 615.109 276.8 616.061 275.784 616.926" stroke="black" stroke-width="5" stroke-linecap="round"/>
<path d="M296.476 617.977C301.077 623.228 306.385 633.115 290.868 630.666C275.35 628.216 263.141 635.77 258.976 639.853C251.939 644.519 235.263 650.351 224.918 636.353" stroke="black" stroke-width="5" stroke-linecap="round"/>
<path d="M147.478 631.44C220.396 591.066 220.471 629.09 214.311 652.279C205.198 675.722 159.993 701.546 139.699 704.635C111.071 711.204 60.3804 703.419 86.67 619.718C119.539 515.094 134.408 438.686 244.212 418.282" stroke="black" stroke-width="5" stroke-linecap="round"/>
<path d="M187.208 540.902C187.208 580.413 184.892 579.482 167.914 615.349" stroke="black" stroke-width="5" stroke-linecap="round"/>
<path d="M336.296 561.922V550.536" stroke="black" stroke-width="5" stroke-linecap="round"/>
<path d="M349.451 561.047L353.836 547.033" stroke="black" stroke-width="5" stroke-linecap="round"/>
<path d="M362.606 564.55L373.13 540.026" stroke="black" stroke-width="5" stroke-linecap="round"/>
<path d="M160.021 702.059C163.074 736.232 164.377 734.07 169.615 753.535C222.51 769.108 339.539 787.016 384.531 734.07" stroke="black" stroke-width="5" stroke-linecap="round"/>
<path d="M214.395 497.109L216.05 494.604C226.024 479.574 245.256 473.573 262.088 480.244C277.191 486.229 294.455 482.059 305.1 469.856L318.757 454.192" stroke="black" stroke-width="5" stroke-linecap="round"/>
<path d="M309.191 417.504C313.028 406.752 309.52 399.516 306.116 398.138C285.606 416.334 254.497 409.579 242.973 398.551C238.868 402.19 241.256 412.956 242.973 416.264C265.185 440.084 296.802 426.741 309.191 417.504Z" fill="black"/>
<path d="M369.635 240.691C360.077 275.056 355.282 278.101 341.379 293.325C341.379 278.28 338.787 253.025 338.787 242.507C293.226 242.507 254.782 223.903 241.238 214.599C241.733 246.148 212.158 266.776 212.158 266.776C212.158 266.776 216.398 279.517 218.825 308.032C220.773 330.846 215.184 326.437 212.158 321.381C203.438 293.228 189.145 300.752 183.078 308.032C108.736 187.187 223.065 163.838 244.879 166.062C261.359 151.986 284.342 140.956 300.493 139.338C358.773 133.503 385.142 184.971 369.635 240.691Z" fill="black"/>
<path d="M212.641 342.885C220.526 390.948 273.429 425.51 311.61 386.574C349.792 347.639 342.147 276.369 338.069 243.112" stroke="black" stroke-width="5" stroke-linecap="round"/>
<path d="M182.643 304.421C178.011 316.133 182.357 342.083 212.641 342.083" stroke="black" stroke-width="5" stroke-linecap="round"/>
<path d="M197.901 311.428C197.364 313.596 197.794 318.736 203.871 321.938" stroke="black" stroke-width="5" stroke-linecap="round"/>
<path d="M338.051 335.952C348.037 331.752 355.087 316.195 352.374 291.284" stroke="black" stroke-width="5" stroke-linecap="round"/>
<path d="M280.169 365.141C289.482 367.941 288.894 360.233 295.955 353.469" stroke="black" stroke-width="5" stroke-linecap="round"/>
<path d="M310.425 310.552C314.058 310.552 317.003 307.415 317.003 303.545C317.003 299.676 314.058 296.539 310.425 296.539C306.792 296.539 303.848 299.676 303.848 303.545C303.848 307.415 306.792 310.552 310.425 310.552Z" fill="black"/>
<path d="M252.544 310.552C256.661 310.552 259.998 307.808 259.998 304.422C259.998 301.035 256.661 298.291 252.544 298.291C248.427 298.291 245.089 301.035 245.089 304.422C245.089 307.808 248.427 310.552 252.544 310.552Z" fill="black"/>
<path d="M238.073 289.532C239.517 285.832 245.756 278.987 259.121 281.207" stroke="black" stroke-width="5" stroke-linecap="round"/>
<path d="M299.463 281.649C302.65 279.667 311.325 276.89 320.511 281.649" stroke="black" stroke-width="5" stroke-linecap="round"/>
<path d="M277.361 301.794C276.353 310.163 275.651 327.135 281.046 328.07" stroke="black" stroke-width="5" stroke-linecap="round"/>
<path d="M265.074 581.191L242.454 543.237C240.687 540.271 241.69 536.428 244.684 534.712C247.603 533.042 251.316 534.013 253.038 536.896L276.661 576.375" stroke="black" stroke-width="5" stroke-linecap="round"/>
<path d="M270.522 713.445C282.55 674.614 310.556 599.227 328.344 601.381C329.152 601.48 329.96 601.71 330.768 601.824L397.686 611.185" stroke="black" stroke-width="5" stroke-linecap="round"/>
<path d="M407.333 626.736L401.194 645.129" stroke="black" stroke-width="5" stroke-linecap="round"/>
<path d="M329.953 610.97C317.121 618.794 298.032 672.482 286.896 708.61C284.465 716.484 289.838 724.541 298.047 725.566L361.468 733.485C367.952 734.292 374.075 730.379 376.041 724.187L381.023 708.452" stroke="black" stroke-width="5" stroke-linecap="round"/>
<path d="M340.237 617.977C344.472 616.441 353.275 607.383 350.762 598.606C350.336 597.083 349.559 595.567 348.356 594.101C340.237 584.191 326.255 594.102 329.865 602.21" stroke="black" stroke-width="5" stroke-linecap="round"/>
<path d="M350.329 598.85C354.647 593.576 366.321 591.166 372.424 601.562C378.099 614.22 367.191 621.453 360.647 622.356" stroke="black" stroke-width="5" stroke-linecap="round"/>
<path d="M373.13 601.307C377.69 597.832 389.894 593.148 396.957 602.215C405.332 616.267 390.341 625.335 384.157 623.973" stroke="black" stroke-width="5" stroke-linecap="round"/>
<path d="M396.809 602.249C402.63 598.837 412.971 597.352 416.948 606.255C420.924 615.16 411.127 626.736 401.723 626.736" stroke="black" stroke-width="5" stroke-linecap="round"/>
<path d="M363.586 675.783C361.192 679.051 361.689 687.479 382.777 695.052" stroke="black" stroke-width="5" stroke-linecap="round"/>
<path d="M418.734 658.413C395.939 654.029 372.544 652.404 363.681 652.139C358.927 651.998 353.648 656.052 356.303 660.641C357.037 661.816 359.347 664.428 362.691 665.48C376.893 670.1 382.952 670.511 389.205 670.528" stroke="black" stroke-width="5" stroke-linecap="round"/>
<path d="M388.916 670.336C382.66 670.318 376.599 669.907 362.392 665.273C359.151 666.444 358.731 672.015 363.862 675.492C367.103 677.697 372.968 680.401 382.66 683.666" stroke="black" stroke-width="5" stroke-linecap="round"/>
<path d="M309.987 418.282C380.869 446.393 437.393 528.994 430.431 642.302C429.415 658.303 421.122 691.431 396.08 695.928" stroke="black" stroke-width="5" stroke-linecap="round"/>
<path d="M370.938 256.249C384.677 252.454 415.401 248.542 428.381 263.256C444.605 281.649 436.712 287.342 455.129 263.256C469.862 243.987 529.381 240.922 557.299 241.798" stroke="black" stroke-width="5" stroke-linecap="round"/>
<path d="M627.458 192.749C625.704 188.515 624.154 173.043 627.458 161.218C632.72 142.387 649.822 73.1958 631.405 57.8671C607.586 38.0422 591.063 47.3575 553.791 51.2985" stroke="black" stroke-width="5" stroke-linecap="round"/>
<path d="M406.045 158.619L407.739 213.596C407.757 214.167 408.249 214.608 408.819 214.562L433.996 212.534C434.533 212.491 434.939 212.03 434.915 211.492L432.377 155.303C432.35 154.716 431.827 154.279 431.246 154.356L406.913 157.597C406.404 157.664 406.03 158.106 406.045 158.619Z" stroke="black" stroke-width="5" stroke-linecap="round"/>
<path d="M452.498 144.785V212.737C452.498 213.443 453.21 213.927 453.866 213.667L477.324 204.376C477.693 204.23 477.94 203.88 477.955 203.484L480.087 146.85C480.107 146.315 479.701 145.858 479.167 145.816L453.577 143.788C452.995 143.742 452.498 144.201 452.498 144.785Z" stroke="black" stroke-width="5" stroke-linecap="round"/>
<path d="M502.048 128.937V204.45C502.048 205.002 502.496 205.45 503.048 205.45H528.235C528.787 205.45 529.235 205.002 529.235 204.45V128.937C529.235 128.384 528.787 127.937 528.235 127.937H503.048C502.496 127.937 502.048 128.384 502.048 128.937Z" stroke="black" stroke-width="5" stroke-linecap="round"/>
<path d="M554.645 113.55L552.507 202.784C552.491 203.456 553.13 203.952 553.778 203.77L579.888 196.436C580.281 196.326 580.568 195.987 580.612 195.581L589.623 112.446C589.688 111.84 589.201 111.316 588.591 111.339L555.607 112.574C555.079 112.594 554.658 113.021 554.645 113.55Z" stroke="black" stroke-width="5" stroke-linecap="round"/>
<path d="M175.354 102.975C174.741 112.998 174.325 133.511 177.561 135.382" stroke="black" stroke-width="5" stroke-linecap="round"/>
<path d="M158.267 123.12L191.593 118.74" stroke="black" stroke-width="5" stroke-linecap="round"/>
<path d="M435.821 397.262C435.208 407.285 434.792 427.798 438.027 429.669" stroke="black" stroke-width="5" stroke-linecap="round"/>
<path d="M418.734 417.407L452.06 413.027" stroke="black" stroke-width="5" stroke-linecap="round"/>
<path d="M572.339 491.854C572.339 493.735 570.676 496.165 566.304 498.273C562.109 500.295 556.137 501.616 549.406 501.616C542.675 501.616 536.703 500.295 532.508 498.273C528.136 496.165 526.473 493.735 526.473 491.854C526.473 489.973 528.136 487.543 532.508 485.436C536.703 483.413 542.675 482.092 549.406 482.092C556.137 482.092 562.109 483.413 566.304 485.436C570.676 487.543 572.339 489.973 572.339 491.854Z" stroke="black" stroke-width="5"/>
<path d="M525.727 492.292V508.044C525.727 508.331 525.844 508.6 526.063 508.786C532.614 514.336 549.739 522.515 568.7 512.875" stroke="black" stroke-width="5" stroke-linecap="round"/>
<path d="M89.1156 194.064C89.1156 195.945 87.4527 198.374 83.0808 200.482C78.8855 202.505 72.9142 203.826 66.1828 203.826C59.4514 203.826 53.4801 202.505 49.2848 200.482C44.9129 198.374 43.25 195.945 43.25 194.064C43.25 192.183 44.9129 189.753 49.2848 187.645C53.4801 185.622 59.4514 184.302 66.1828 184.302C72.9142 184.302 78.8855 185.622 83.0808 187.645C87.4527 189.753 89.1156 192.183 89.1156 194.064Z" stroke="black" stroke-width="5"/>
<path d="M42.5039 194.502V210.254C42.5039 210.541 42.6208 210.81 42.8397 210.995C49.3908 216.545 66.5162 224.724 85.4766 215.084" stroke="black" stroke-width="5" stroke-linecap="round"/>
<path d="M537.124 346.801C535.808 348.15 532.918 348.73 528.315 347.194C523.897 345.719 518.698 342.504 513.876 337.814C509.055 333.123 505.701 328.016 504.109 323.645C502.451 319.09 502.956 316.189 504.272 314.84C505.588 313.491 508.478 312.91 513.081 314.446C517.499 315.921 522.698 319.136 527.52 323.827C532.341 328.517 535.695 333.624 537.287 337.996C538.945 342.551 538.44 345.451 537.124 346.801Z" stroke="black" stroke-width="5"/>
<path d="M503.431 314.632L492.424 325.916C492.224 326.121 492.12 326.395 492.147 326.68C492.962 335.221 499.514 353.015 519.831 359.323" stroke="black" stroke-width="5" stroke-linecap="round"/>
</svg>
