<svg width="936" height="500" viewBox="0 0 936 500" fill="none" xmlns="http://www.w3.org/2000/svg">
<path d="M226.724 307.286L485.365 262.647C486.348 262.477 486.946 263.694 486.211 264.369L364.682 375.882C364.608 375.949 364.532 376.003 364.44 376.044C354.11 380.625 312.008 363.498 291.143 353.866C290.58 353.607 289.933 353.922 289.769 354.52C284.523 373.58 277.944 391.364 274.975 398.713C274.798 399.152 274.325 399.415 273.913 399.183C267.191 395.404 266.436 358.769 266.94 339.479C266.954 338.967 266.584 338.543 266.078 338.462C250.368 335.948 228.261 321.355 219.018 314.243" stroke="black" stroke-width="5" stroke-linecap="round"/>
<path d="M292.804 351.12C319.378 338.451 386.605 306.72 442.92 281.15" stroke="black" stroke-width="5" stroke-linecap="round"/>
<path d="M272.449 399.463L322.064 367.658" stroke="black" stroke-width="5" stroke-linecap="round"/>
<path d="M283.899 326.949L352.596 302.777" stroke="black" stroke-width="5" stroke-linecap="round"/>
<path d="M245.397 442.203C220.165 455.837 151.283 470.406 77.6124 419.612" stroke="black" stroke-width="5" stroke-linecap="round"/>
<path d="M208.028 410.943C165.966 404.663 66.0239 367.105 2.74836 267.118" stroke="black" stroke-width="5" stroke-linecap="round"/>
<path d="M568.944 193.788C551.74 299.866 604.185 395.446 684.606 408.488C765.027 421.531 844.991 347.426 862.195 241.348C879.399 135.27 826.954 39.6907 746.533 26.648C666.112 13.6053 586.147 87.7107 568.944 193.788Z" stroke="black" stroke-width="5"/>
<path d="M602.167 197.231C595.58 237.844 601.845 276.496 617.178 306.14C632.512 335.784 656.812 356.272 686.323 361.058C715.834 365.844 745.364 354.086 769.28 330.808C793.196 307.53 811.356 272.839 817.942 232.226C824.529 191.612 818.264 152.96 802.931 123.316C787.598 93.6726 763.298 73.1845 733.787 68.3983C704.276 63.6122 674.746 75.3701 650.829 98.6484C626.913 121.926 608.754 156.617 602.167 197.231Z" stroke="black" stroke-width="5"/>
<ellipse cx="56.3586" cy="75.9911" rx="56.3586" ry="75.9911" transform="matrix(-0.987103 -0.160089 -0.160089 0.987103 767.535 150.358)" fill="black"/>
<path d="M829.237 388.015C727.464 485.972 614.24 428.724 590.068 367.024C600.832 428.569 673.762 463.487 734.461 464.98C801.25 464.98 884.577 409.64 907.476 359.389C991.744 174.47 863.374 44.3151 799.341 26.0811C919.562 82.6928 938.619 282.734 829.237 388.015Z" fill="black"/>
</svg>
